<svg width="547" height="277" viewBox="0 0 547 277" fill="none" xmlns="http://www.w3.org/2000/svg">
<g clip-path="url(#clip0_436_2343)">
<path d="M33.7654 204.857V153.643H16.8827V204.857V221.929H33.7654H49.804V204.857H33.7654Z" fill="white"/>
<path d="M83.5695 204.857V221.928H118.179H135.062V204.857" fill="white"/>
<path d="M118.179 102.429H84.4136V119.5H118.179V187.786H135.062V119.5V102.429H118.179Z" fill="white"/>
<path d="M33.7654 102.429H16.8827V119.5V136.571H33.7654V119.5H67.5309V102.429H33.7654Z" fill="white"/>
<path d="M118.179 85.3572V51.2143H101.296V85.3572H118.179Z" fill="white"/>
<path d="M219.475 68.2857V51.2143H202.593V68.2857H219.475Z" fill="white"/>
<path d="M219.475 102.429H135.062V85.3571H118.179V102.429V119.5H135.062H219.475H236.358V102.429V68.2857H219.475V102.429Z" fill="white"/>
<path d="M219.475 0H135.062H118.179V17.0714V51.2143H135.062V17.0714H219.475V51.2143H236.358V17.0714V0H219.475Z" fill="white"/>
<path d="M49.804 239H83.5694V221.929H49.804V239Z" fill="white"/>
<path d="M151.944 204.857V187.786H135.062V204.857H151.944Z" fill="white"/>
<path d="M16.8827 153.643V136.571H1.90735e-06V153.643H16.8827Z" fill="white"/>
<path d="M84.4136 136.571V119.5H67.5309V136.571H84.4136Z" fill="white"/>
<path d="M217.804 189.766H234.087V221.929H177.15V145.602H217.804V161.41H193.434V173.949H217.804V189.758H193.434V206.112H217.804V189.758V189.766ZM217.804 173.958V161.419H234.087V173.958H217.804Z" fill="white"/>
<path d="M301.365 145.602V221.929H260.711V206.12H244.428V145.602H260.711V206.12H285.082V145.602H301.365Z" fill="white"/>
<path d="M313.765 161.854V145.935H330.049V161.854H313.765ZM313.765 221.929V168.606H330.049V221.929H313.765Z" fill="white"/>
<path d="M395.933 145.602V221.929H338.996V184.534H355.28V206.12H379.65V184.534H355.28V168.615H379.65V145.611H395.933V145.602Z" fill="white"/>
<path d="M408.975 221.929V145.713H425.259V221.929H408.975Z" fill="white"/>
<path d="M486.94 161.41V206.112H495.136V221.92H462.569V206.112H470.656V161.41H462.569V145.602H495.136V161.41H486.94Z" fill="white"/>
<path d="M547 206.121V221.929H523.17V206.334H506.887V184.201H500.632V168.393H506.887V145.824H523.17V168.393H537.833V184.201H523.17V206.121H547Z" fill="white"/>
<path d="M307.097 100.176V119.076H311.174V113.379H317.276V109.437H311.174V104.091H317.276V109.437H321.38V100.176H307.097ZM333.67 104.091V115.161H327.568V104.091H333.67V100.176H323.491V115.161H327.568V119.076H337.747V104.091H333.67ZM344.844 119.076V100.203H340.767V119.076H344.844ZM357.764 100.203V108.195H351.662V100.203H347.585V108.195H351.662V112.11H357.764V115.161H348.044V119.076H361.841V100.203H357.764ZM365.023 100.176V112.488H374.716V115.161H365.023V119.076H378.793V104.091H374.716V108.546H369.1V104.091H374.716V100.176H365.023ZM391.704 104.091V115.161H385.602V104.091H391.704V100.176H381.525V115.161H385.602V119.076H395.781V104.091H391.704ZM409.251 100.176H398.802V119.076H402.879V104.091H409.251V100.176ZM413.328 119.076V104.091H409.251V119.076H413.328ZM423.112 100.176V119.076H427.189V113.379H433.291V109.437H427.189V104.091H433.291V109.437H437.395V100.176H423.112ZM439.776 100.176V119.076H443.853V104.091H449.955V100.176H439.776ZM465.488 111.624V104.091H461.411V107.682H455.633V104.091H461.411V100.176H451.556V115.188H455.633V119.076H465.137V115.161H455.633V111.624H465.488ZM471.978 107.358V104.091H482.157V100.176H471.978V104.091H467.901V111.273H478.08V115.161H467.901V119.076H478.08V115.161H482.157V107.358H471.978ZM498.711 111.624V104.091H494.634V107.682H488.856V104.091H494.634V100.176H484.779V115.188H488.856V119.076H498.36V115.161H488.856V111.624H498.711ZM511.977 100.176H501.528V119.076H505.605V104.091H511.977V100.176ZM516.054 119.076V104.091H511.977V119.076H516.054ZM523.841 115.161V109.734H527.513V105.819H523.841V100.23H519.764V105.819H518.198V109.734H519.764V115.215H523.841V119.076H529.808V115.161H523.841ZM535.549 107.358V104.091H545.728V100.176H535.549V104.091H531.472V111.273H541.651V115.161H531.472V119.076H541.651V115.161H545.728V107.358H535.549Z" fill="white"/>
</g>
<path d="M367.59 258.282V255.015H377.769V251.1H367.59V255.015H363.513V262.197H373.692V266.085H363.513V270H373.692V266.085H377.769V258.282H367.59ZM390.57 251.1V266.085H384.468V251.1H380.391V266.085H384.468V270H394.647V251.1H390.57ZM414.213 251.1H397.905V270H401.982V255.015H406.059V270H410.136V255.015H414.213V251.1ZM418.29 270V255.015H414.213V270H418.29ZM437.601 251.1H421.293V270H425.37V255.015H429.447V270H433.524V255.015H437.601V251.1ZM441.678 270V255.015H437.601V270H441.678ZM458.343 262.548V255.015H454.266V258.606H448.488V255.015H454.266V251.1H444.411V266.112H448.488V270H457.992V266.085H448.488V262.548H458.343ZM461.16 251.1V270H465.237V255.015H471.339V251.1H461.16ZM490.085 255.015V251.1H479.906V255.015H490.085ZM494.162 263.304V255.015H490.085V259.389H479.906V270H494.162V266.085H483.983V263.304H494.162ZM510.701 255.015H506.624V251.1H497.255V266.085H501.332V270H510.701V255.015ZM506.624 266.085H501.332V255.015H506.624V266.085ZM523.993 255.015V251.1H513.814V255.015H523.993ZM528.07 263.304V255.015H523.993V259.389H513.814V270H528.07V266.085H517.891V263.304H528.07ZM541.369 255.015V251.1H531.19V255.015H541.369ZM545.446 263.304V255.015H541.369V259.389H531.19V270H545.446V266.085H535.267V263.304H545.446Z" fill="white"/>
<defs>
<clipPath id="clip0_436_2343">
<rect width="547" height="239" fill="white"/>
</clipPath>
</defs>
</svg>
